HIERARCHY
ROOT joint_Root
{
	OFFSET 0.0 0.0 0.0
	CHANNELS 6 Xposition Yposition Zposition Zrotation Xrotation Yrotation 
	JOINT Hips
	{
		OFFSET -0.726466 93.3139 -2.00062
		CHANNELS 6 Xposition Yposition Zposition Zrotation Xrotation Yrotation 
		JOINT Spine
		{
			OFFSET 15.7357 0.0 0.0
			CHANNELS 6 Xposition Yposition Zposition Zrotation Xrotation Yrotation 
			JOINT Chest
			{
				OFFSET 8.98455 -0.406207 0.0
				CHANNELS 6 Xposition Yposition Zposition Zrotation Xrotation Yrotation 
				JOINT Neck
				{
					OFFSET 16.3773 0.0 0.0
					CHANNELS 6 Xposition Yposition Zposition Zrotation Xrotation Yrotation 
					JOINT Head
					{
						OFFSET 6.45672 0.0 0.0
						CHANNELS 6 Xposition Yposition Zposition Zrotation Xrotation Yrotation 
						End Site
						{
							OFFSET 0.0 0.0 0.0
						}
					}
				}
				JOINT Shoulder_L
				{
					OFFSET 12.9942 -0.242716 4.98039
					CHANNELS 6 Xposition Yposition Zposition Zrotation Xrotation Yrotation 
					JOINT UpperArm_L
					{
						OFFSET 5.34809 0.0 0.0
						CHANNELS 6 Xposition Yposition Zposition Zrotation Xrotation Yrotation 
						JOINT LowerArm_L
						{
							OFFSET 24.3286 1.87007e-05 0.0
							CHANNELS 6 Xposition Yposition Zposition Zrotation Xrotation Yrotation 
							JOINT Hand_L
							{
								OFFSET 22.2916 0.0 0.0
								CHANNELS 6 Xposition Yposition Zposition Zrotation Xrotation Yrotation 
								End Site
								{
									OFFSET 0.0 0.0 0.0
								}
							}
						}
					}
				}
				JOINT Shoulder_R
				{
					OFFSET 12.9945 -0.242716 -4.98039
					CHANNELS 6 Xposition Yposition Zposition Zrotation Xrotation Yrotation 
					JOINT UpperArm_R
					{
						OFFSET -5.34813 0.0 0.0
						CHANNELS 6 Xposition Yposition Zposition Zrotation Xrotation Yrotation 
						JOINT LowerArm_R
						{
							OFFSET -24.3289 0.000322201 0.0
							CHANNELS 6 Xposition Yposition Zposition Zrotation Xrotation Yrotation 
							JOINT Hand_R
							{
								OFFSET -22.2915 -0.000108084 0.0
								CHANNELS 6 Xposition Yposition Zposition Zrotation Xrotation Yrotation 
								End Site
								{
									OFFSET 0.0 0.0 0.0
								}
							}
						}
					}
				}
			}
		}
		JOINT UpperLeg_L
		{
			OFFSET -2.19248 -6.46944 0.0
			CHANNELS 6 Xposition Yposition Zposition Zrotation Xrotation Yrotation 
			JOINT LowerLeg_L
			{
				OFFSET 39.0811 0.0 -1.23785e-05
				CHANNELS 6 Xposition Yposition Zposition Zrotation Xrotation Yrotation 
				JOINT Foot_L
				{
					OFFSET 40.9854 0.0 -1.26872e-05
					CHANNELS 6 Xposition Yposition Zposition Zrotation Xrotation Yrotation 
					JOINT Toes_L
					{
						OFFSET 11.7543 0.0 0.0
						CHANNELS 6 Xposition Yposition Zposition Zrotation Xrotation Yrotation 
						End Site
						{
							OFFSET 0.0 0.0 0.0
						}
					}
				}
			}
		}
		JOINT UpperLeg_R
		{
			OFFSET -2.19251 6.46944 0.0
			CHANNELS 6 Xposition Yposition Zposition Zrotation Xrotation Yrotation 
			JOINT LowerLeg_R
			{
				OFFSET -39.0811 -0.00228153 -0.0401928
				CHANNELS 6 Xposition Yposition Zposition Zrotation Xrotation Yrotation 
				JOINT Foot_R
				{
					OFFSET -40.9854 0.0 0.0
					CHANNELS 6 Xposition Yposition Zposition Zrotation Xrotation Yrotation 
					JOINT Toes_R
					{
						OFFSET -11.7543 0.0 0.0
						CHANNELS 6 Xposition Yposition Zposition Zrotation Xrotation Yrotation 
						End Site
						{
							OFFSET 0.0 0.0 0.0
						}
					}
				}
			}
		}
	}
}
MOTION
Frames:	4
Frame Time:	0.0333333
0.000000 0.000000 0.000000 0.000000 0.000000 -0.000000 -1.008740 92.015300 -1.101610 87.774200 -1.197860 4.064800 15.735700 0.000005 -0.000001 83.574100 84.581900 -83.010800 8.984550 -0.406207 -0.000000 3.009030 -1.234930 1.157870 16.377300 -0.000001 -0.000001 5.357340 -1.679010 1.862480 6.456720 -0.000001 -0.000000 4.304900 -0.528576 -2.092210 12.994200 -0.242716 4.980390 -90.256800 0.806053 -72.331200 5.348090 -0.000007 -0.000001 -65.080800 39.432800 -13.636900 24.328600 0.000019 0.000005 2.789150 5.309650 -27.764800 22.291600 -0.000001 0.000005 6.382950 5.635550 -13.763400 12.994500 -0.242716 -4.980390 87.766000 6.485390 -70.946400 -5.348130 -0.000001 -0.000004 -65.307200 32.377900 -13.662700 -24.328900 0.000322 -0.000009 -0.347671 -0.804028 -23.320900 -22.291500 -0.000108 -0.000004 5.349780 5.600430 -11.368000 -2.192480 -6.469440 -0.000000 -168.921000 -19.392000 -2.358070 39.081100 -0.000007 -0.000012 -0.176689 0.420268 22.803000 40.985400 -0.000006 -0.000013 -6.010070 0.690135 -63.959900 11.754300 -0.000000 0.000003 -0.000103 -0.001055 -16.618000 -2.192510 6.469440 -0.000001 173.774000 24.082200 -179.724000 -39.081100 -0.002282 -0.040193 -0.028413 0.087302 19.976300 -40.985400 0.000008 0.000006 -2.884340 3.359430 -63.570500 -11.754300 -0.000006 -0.000006 -0.003316 -0.044122 -18.367600
0.000000 0.000000 0.000000 0.000000 0.000000 -0.000000 -0.979989 92.009800 -1.099010 87.786400 -1.186170 4.130070 15.735700 0.000005 -0.000001 83.412800 84.559800 -82.853200 8.984550 -0.406207 -0.000000 3.049630 -1.269890 1.151890 16.377300 -0.000001 -0.000001 5.242250 -1.620260 1.856360 6.456720 -0.000001 -0.000000 4.282420 -0.508098 -2.106340 12.994200 -0.242716 4.980390 -90.248000 0.778342 -72.326400 5.348090 -0.000007 -0.000001 -64.852900 39.882900 -13.676100 24.328600 0.000019 0.000005 2.816900 5.270650 -28.174600 22.291600 -0.000001 0.000005 6.962540 5.639300 -14.063100 12.994500 -0.242716 -4.980390 87.758600 6.510590 -70.956000 -5.348130 -0.000001 -0.000004 -64.597900 31.455200 -14.282900 -24.328900 0.000322 -0.000009 -0.443688 -0.960847 -24.733400 -22.291500 -0.000108 -0.000004 5.227570 5.598880 -11.274500 -2.192480 -6.469440 -0.000000 -168.928000 -19.381900 -2.312340 39.081100 -0.000007 -0.000012 -0.176330 0.418487 22.848500 40.985400 -0.000006 -0.000013 -5.989210 0.711273 -63.989700 11.754300 -0.000000 0.000003 -0.000111 -0.001126 -16.620700 -2.192510 6.469440 -0.000001 173.731000 24.037000 -179.686000 -39.081100 -0.002282 -0.040193 -0.026969 0.083037 20.041000 -40.985400 0.000008 0.000006 -2.833840 3.284370 -63.607200 -11.754300 -0.000006 -0.000006 -0.003490 -0.046032 -18.445300
0.000000 0.000000 0.000000 0.000000 0.000000 -0.000000 -0.934632 92.012200 -1.135100 87.803400 -1.270780 4.117190 15.735700 0.000005 -0.000001 83.302400 84.578300 -82.751400 8.984550 -0.406207 -0.000000 3.010550 -1.286240 1.134760 16.377300 -0.000001 -0.000001 5.137170 -1.557650 1.814030 6.456720 -0.000001 -0.000000 4.233680 -0.411000 -2.072070 12.994200 -0.242716 4.980390 -90.232700 0.731124 -72.342500 5.348090 -0.000007 -0.000001 -64.492400 40.348400 -13.649200 24.328600 0.000019 0.000005 3.259230 5.914610 -28.924400 22.291600 -0.000001 0.000005 8.216800 5.645930 -14.628500 12.994500 -0.242716 -4.980390 87.719600 6.603890 -70.900900 -5.348130 -0.000001 -0.000004 -63.057100 30.076200 -15.471700 -24.328900 0.000322 -0.000009 -0.112805 -0.217845 -27.217200 -22.291500 -0.000108 -0.000004 4.964040 5.582490 -10.346400 -2.192480 -6.469440 -0.000000 -168.980000 -19.426700 -2.332580 39.081100 -0.000007 -0.000012 -0.176471 0.418625 22.858100 40.985400 -0.000006 -0.000013 -5.960920 0.680253 -63.995300 11.754300 -0.000000 0.000003 -0.000097 -0.001004 -16.616100 -2.192510 6.469440 -0.000001 173.710000 23.994100 -179.759000 -39.081100 -0.002282 -0.040193 -0.025581 0.079150 20.060000 -40.985400 0.000008 0.000006 -2.810970 3.341130 -63.569700 -11.754300 -0.000006 -0.000006 -0.003162 -0.042422 -18.298400
0.000000 0.000000 0.000000 0.000000 0.000000 -0.000000 -0.871423 92.017100 -1.159790 87.833900 -1.409130 4.127710 15.735700 0.000005 -0.000001 83.212500 84.605000 -82.692900 8.984550 -0.406207 -0.000000 2.955030 -1.295780 1.071630 16.377300 -0.000001 -0.000001 4.953910 -1.517750 1.814250 6.456720 -0.000001 -0.000000 4.253400 -0.310718 -1.996940 12.994200 -0.242716 4.980390 -90.216900 0.680310 -72.317800 5.348090 -0.000007 -0.000001 -63.547800 41.476700 -13.828700 24.328600 0.000019 0.000005 3.617000 6.271950 -30.054100 22.291600 -0.000001 0.000005 10.185600 5.653550 -15.353700 12.994500 -0.242716 -4.980390 87.658100 6.727870 -70.757000 -5.348130 -0.000001 -0.000004 -60.414600 28.705400 -17.656400 -24.328900 0.000322 -0.000009 0.277685 0.478839 -30.198400 -22.291500 -0.000108 -0.000004 5.900960 5.574240 -9.907510 -2.192480 -6.469440 -0.000000 -169.052000 -19.533200 -2.305760 39.081100 -0.000007 -0.000012 -0.174779 0.414599 22.858700 40.985400 -0.000006 -0.000013 -5.918650 0.618469 -64.009500 11.754300 -0.000000 0.000003 -0.000115 -0.001157 -16.621800 -2.192510 6.469440 -0.000001 173.660000 23.841700 -179.787000 -39.081100 -0.002282 -0.040193 -0.024812 0.077182 20.026700 -40.985400 0.000008 0.000006 -2.912900 3.332830 -63.495700 -11.754300 -0.000006 -0.000006 -0.003096 -0.041687 -18.268500
